<?xml version="1.0" encoding="UTF-8"?>
<svg id="Capa_1" xmlns="http://www.w3.org/2000/svg" version="1.1" viewBox="0 0 15.2 14.4">
  <!-- Generator: Adobe Illustrator 29.5.1, SVG Export Plug-In . SVG Version: 2.1.0 Build 141)  -->
  <defs>
    <style>
      .st0 {
        fill: #f1ff2b;
        fill-rule: evenodd;
      }
    </style>
  </defs>
  <path class="st0" d="M7.6,0C11.7,0,15,3.3,15,7.3s-2,5.9-5,6.9c-.4,0-.5-.1-.5-.4v-2c0-1-.2-1.1-.5-1.3,1.7-.2,3.4-.8,3.4-3.6s-.3-1.4-.8-1.9c0-.2.3-.9,0-1.9,0,0-.6-.2-2,.7-.6-.2-1.2-.2-1.9-.2s-1.3,0-1.9.2c-1.4-.9-2-.7-2-.7-.4,1-.1,1.7,0,1.9-.5.5-.8,1.2-.8,1.9,0,2.8,1.7,3.4,3.4,3.6-.2.2-.4.5-.5,1-.4.2-1.5.5-2.2-.6-.1-.2-.6-.7-1.1-.7s-.2.4,0,.5c.3.2.7.8.8,1,.1.4.6,1.2,2.5.9v1.4c0,.2-.1.4-.5.4C2.3,13.1.2,10.4.2,7.3S3.5,0,7.6,0Z"/>
</svg>