<?xml version="1.0" encoding="UTF-8"?>
<svg id="Layer_1" xmlns="http://www.w3.org/2000/svg" version="1.1" viewBox="0 0 14.4 14.4">
  <!-- Generator: Adobe Illustrator 29.5.1, SVG Export Plug-In . SVG Version: 2.1.0 Build 141)  -->
  <defs>
    <style>
      .st0 {
        fill: #f1f52b;
        fill-rule: evenodd;
      }
    </style>
  </defs>
  <path class="st0" d="M7.2,0C3.3,0,0,3.3,0,7.2s3.2,7.1,7.1,7.1,7.1-3.2,7.1-7.1S11.1,0,7.2,0ZM4.7,11.2h-1.6c0,0-.1,0-.1-.1v-5.2c0,0,0-.1.1-.1h1.6c.1,0,.1,0,.1.1v5.2c0,.1,0,.1-.1.1h0ZM4.9,4.3c-.1.5-.6.8-1.2.7-.6-.1-1-.7-.7-1.3.1-.4.5-.6,1-.6.7,0,1.1.5,1,1.2ZM11.2,11.2h-1.5c-.1,0-.1,0-.1-.1v-2.7c0-.2,0-.4,0-.6-.2-.7-.9-.9-1.4-.5-.3.2-.4.5-.4.9v2.6c0,.9,0,.2,0,.3s0,.1-.1.1h-1.6c0,0-.1,0-.1-.1v-5.2c0-.1,0-.1.1-.1h1.6c0,0,.1,0,.1.1v.6s0,0,0,0c.5-.7,1.2-.9,2-.8.9.1,1.5.8,1.6,1.8,0,.2,0,.5,0,.7v2.9c0,.1,0,.1-.1.1h0Z"/>
</svg>